<?xml version="1.0" encoding="UTF-8"?><svg id="a" xmlns="http://www.w3.org/2000/svg" width="1020.58" height="381.67" viewBox="0 0 1020.58 381.67"><path d="M16.03,219.89v-43.98h87.96v-43.98H16.03V0h153.92v43.98h-87.96v43.98h87.96v131.93H16.03Z" fill="#fff"/><path d="M257.9,0v219.89h-65.97V0h65.97Z" fill="#fff"/><path d="M345.86,0v43.98h21.99v43.98h43.98v-43.98h21.99V0h65.97v219.89h-65.97v-87.96h-21.99v43.98h-43.98v-43.98h-21.99v87.96h-65.97V0h65.97Z" fill="#fff"/><path d="M587.74,131.93v87.96h-65.97V0h153.92v131.93h-87.96ZM587.74,43.98v43.98h21.99v-43.98h-21.99Z" fill="#fff"/><path d="M763.65,0v175.91h65.97v43.98h-131.93V0h65.97Z" fill="#fff"/><path d="M917.57,87.96h87.96v43.98h-87.96v43.98h87.96v43.98h-153.92V0h153.92v43.98h-87.96v43.98Z" fill="#fff"/><path d="M34,258.01h25.95l19.85,121.92h-19.16l-3.48-24.21v.35h-21.77l-3.48,23.86H14.14l19.85-121.92ZM54.9,339.52l-8.53-60.26h-.35l-8.36,60.26h17.24Z" fill="#fff"/><path d="M176.29,258.01h28.39c19.85,0,28.39,9.23,28.39,28.04v7.49c0,12.54-4.01,20.55-12.54,24.03v.35c9.58,2.96,12.71,12.02,12.71,25.78v21.42c0,5.92.17,10.28,2.09,14.8h-19.51c-1.04-3.13-1.74-5.05-1.74-14.98v-22.29c0-11.32-3.31-14.98-12.02-14.98h-6.62v52.25h-19.16v-121.92ZM202.41,310.26c7.14,0,11.5-3.13,11.5-12.89v-9.41c0-8.71-2.96-12.54-9.75-12.54h-8.71v34.83h6.97Z" fill="#fff"/><path d="M332.52,351.71v-65.49c0-18.81,9.75-29.96,28.21-29.96s28.21,11.15,28.21,29.96v12.89h-18.11v-14.11c0-8.01-3.83-11.32-9.58-11.32s-9.58,3.31-9.58,11.32v68.1c0,8.01,3.83,11.15,9.58,11.15s9.58-3.13,9.58-11.15v-18.64h18.11v17.24c0,18.81-9.75,29.96-28.21,29.96s-28.21-11.15-28.21-29.96Z" fill="#fff"/><path d="M502.5,258.01h25.95l19.85,121.92h-19.16l-3.48-24.21v.35h-21.77l-3.48,23.86h-17.76l19.85-121.92ZM523.4,339.52l-8.53-60.26h-.35l-8.36,60.26h17.24Z" fill="#fff"/><path d="M644.79,258.01h29.26c19.16,0,28.56,10.62,28.56,30.13v61.65c0,19.51-9.4,30.13-28.56,30.13h-29.26v-121.92ZM673.7,362.51c6.1,0,9.75-3.14,9.75-11.84v-63.4c0-8.71-3.66-11.84-9.75-11.84h-9.75v87.08h9.75Z" fill="#fff"/><path d="M802.76,258.01h52.25v17.42h-33.09v32.22h26.3v17.42h-26.3v37.45h33.09v17.42h-52.25v-121.92Z" fill="#fff"/><path d="M950.28,351.01v-6.97h18.11v8.36c0,8.71,3.83,11.84,9.93,11.84s9.93-3.13,9.93-12.19c0-10.1-3.83-16.55-16.37-27.52-16.02-14.11-21.25-24.04-21.25-37.97,0-19.16,9.93-30.3,28.56-30.3s27.87,11.15,27.87,30.65v5.05h-18.11v-6.27c0-8.71-3.48-12.02-9.58-12.02s-9.58,3.31-9.58,11.67c0,8.88,4.01,15.33,16.55,26.3,16.02,14.11,21.07,23.86,21.07,39.01,0,19.85-10.1,31-28.91,31s-28.21-11.15-28.21-30.65Z" fill="#fff"/><rect y="333.89" width="1019.61" height="4.65"/><rect y="346.89" width="1019.61" height="6.87"/><rect x=".97" y="363.69" width="1019.61" height="12"/></svg>